<svg class="lg:m-auto lg:max-h-full h-full max-w-full" viewBox="-66 -66 852 660" width="11in" height="8.5in" role="graphics-document"><defs><filter x="-0.05" y="-0.1" width="1.1" height="1.2" id="solid"><feFlood flood-color="black" result="bg"></feFlood><feMerge><feMergeNode in="bg"></feMergeNode><feMergeNode in="SourceGraphic"></feMergeNode></feMerge></filter></defs><g><!--[--><text x="0" y="-35" text-anchor="start" font-family="Arial" font-size="18" fill="black" font-weight="bold">GW Chapter Approved 2025-2026 - Terrain Layout 1 - Hammer and Anvil</text><!--]--><!--[--><text x="0" y="-18" text-anchor="start" font-size="12" fill="#666">Generated via tabletop.labrador.dev</text><!--]--><!--[--><!--[--><line x1="0" y1="0" x2="0" y2="528" stroke="gray" stroke-width="2" opacity="0.6"></line><!--]--><!--[!--><!--]--><!--[--><line x1="12" y1="0" x2="12" y2="528" stroke="gray" stroke-width="1" opacity="0.6"></line><!--]--><!--[!--><!--]--><!--[--><line x1="24" y1="0" x2="24" y2="528" stroke="gray" stroke-width="1" opacity="0.6"></line><!--]--><!--[!--><!--]--><!--[--><line x1="36" y1="0" x2="36" y2="528" stroke="gray" stroke-width="1" opacity="0.6"></line><!--]--><!--[!--><!--]--><!--[--><line x1="48" y1="0" x2="48" y2="528" stroke="gray" stroke-width="1" opacity="0.6"></line><!--]--><!--[!--><!--]--><!--[--><line x1="60" y1="0" x2="60" y2="528" stroke="gray" stroke-width="2" opacity="0.6"></line><!--]--><!--[--><text x="60" y="-3" text-anchor="middle" dominant-baseline="auto" font-family="Arial" font-size="14" fill="black" transform="">5</text><text x="60" y="540" text-anchor="middle" font-family="Arial" font-size="14" fill="black">5</text><!--]--><!--[--><line x1="72" y1="0" x2="72" y2="528" stroke="gray" stroke-width="1" opacity="0.6"></line><!--]--><!--[!--><!--]--><!--[--><line x1="84" y1="0" x2="84" y2="528" stroke="gray" stroke-width="1" opacity="0.6"></line><!--]--><!--[!--><!--]--><!--[--><line x1="96" y1="0" x2="96" y2="528" stroke="gray" stroke-width="1" opacity="0.6"></line><!--]--><!--[!--><!--]--><!--[--><line x1="108" y1="0" x2="108" y2="528" stroke="gray" stroke-width="1" opacity="0.6"></line><!--]--><!--[!--><!--]--><!--[--><line x1="120" y1="0" x2="120" y2="528" stroke="gray" stroke-width="2" opacity="0.6"></line><!--]--><!--[--><text x="120" y="-3" text-anchor="middle" dominant-baseline="auto" font-family="Arial" font-size="14" fill="black" transform="">10</text><text x="120" y="540" text-anchor="middle" font-family="Arial" font-size="14" fill="black">10</text><!--]--><!--[--><line x1="132" y1="0" x2="132" y2="528" stroke="gray" stroke-width="1" opacity="0.6"></line><!--]--><!--[!--><!--]--><!--[--><line x1="144" y1="0" x2="144" y2="528" stroke="gray" stroke-width="1" opacity="0.6"></line><!--]--><!--[!--><!--]--><!--[--><line x1="156" y1="0" x2="156" y2="528" stroke="gray" stroke-width="1" opacity="0.6"></line><!--]--><!--[!--><!--]--><!--[--><line x1="168" y1="0" x2="168" y2="528" stroke="gray" stroke-width="1" opacity="0.6"></line><!--]--><!--[!--><!--]--><!--[--><line x1="180" y1="0" x2="180" y2="528" stroke="gray" stroke-width="2" opacity="0.6"></line><!--]--><!--[--><text x="180" y="-3" text-anchor="middle" dominant-baseline="auto" font-family="Arial" font-size="14" fill="black" transform="">15</text><text x="180" y="540" text-anchor="middle" font-family="Arial" font-size="14" fill="black">15</text><!--]--><!--[--><line x1="192" y1="0" x2="192" y2="528" stroke="gray" stroke-width="1" opacity="0.6"></line><!--]--><!--[!--><!--]--><!--[--><line x1="204" y1="0" x2="204" y2="528" stroke="gray" stroke-width="1" opacity="0.6"></line><!--]--><!--[!--><!--]--><!--[--><line x1="216" y1="0" x2="216" y2="528" stroke="gray" stroke-width="1" opacity="0.6"></line><!--]--><!--[!--><!--]--><!--[--><line x1="228" y1="0" x2="228" y2="528" stroke="gray" stroke-width="1" opacity="0.6"></line><!--]--><!--[!--><!--]--><!--[--><line x1="240" y1="0" x2="240" y2="528" stroke="gray" stroke-width="2" opacity="0.6"></line><!--]--><!--[--><text x="240" y="-3" text-anchor="middle" dominant-baseline="auto" font-family="Arial" font-size="14" fill="black" transform="">20</text><text x="240" y="540" text-anchor="middle" font-family="Arial" font-size="14" fill="black">20</text><!--]--><!--[--><line x1="252" y1="0" x2="252" y2="528" stroke="gray" stroke-width="1" opacity="0.6"></line><!--]--><!--[!--><!--]--><!--[--><line x1="264" y1="0" x2="264" y2="528" stroke="gray" stroke-width="1" opacity="0.6"></line><!--]--><!--[!--><!--]--><!--[--><line x1="276" y1="0" x2="276" y2="528" stroke="gray" stroke-width="1" opacity="0.6"></line><!--]--><!--[!--><!--]--><!--[--><line x1="288" y1="0" x2="288" y2="528" stroke="gray" stroke-width="1" opacity="0.6"></line><!--]--><!--[!--><!--]--><!--[--><line x1="300" y1="0" x2="300" y2="528" stroke="gray" stroke-width="2" opacity="0.6"></line><!--]--><!--[--><text x="300" y="-3" text-anchor="middle" dominant-baseline="auto" font-family="Arial" font-size="14" fill="black" transform="">25</text><text x="300" y="540" text-anchor="middle" font-family="Arial" font-size="14" fill="black">25</text><!--]--><!--[--><line x1="312" y1="0" x2="312" y2="528" stroke="gray" stroke-width="1" opacity="0.6"></line><!--]--><!--[!--><!--]--><!--[--><line x1="324" y1="0" x2="324" y2="528" stroke="gray" stroke-width="1" opacity="0.6"></line><!--]--><!--[!--><!--]--><!--[--><line x1="336" y1="0" x2="336" y2="528" stroke="gray" stroke-width="1" opacity="0.6"></line><!--]--><!--[!--><!--]--><!--[--><line x1="348" y1="0" x2="348" y2="528" stroke="gray" stroke-width="1" opacity="0.6"></line><!--]--><!--[!--><!--]--><!--[!--><!--]--><!--[--><text x="360" y="-3" text-anchor="middle" dominant-baseline="auto" font-family="Arial" font-size="14" fill="black" transform="">30</text><text x="360" y="540" text-anchor="middle" font-family="Arial" font-size="14" fill="black">30</text><!--]--><!--[--><line x1="372" y1="0" x2="372" y2="528" stroke="gray" stroke-width="1" opacity="0.6"></line><!--]--><!--[!--><!--]--><!--[--><line x1="384" y1="0" x2="384" y2="528" stroke="gray" stroke-width="1" opacity="0.6"></line><!--]--><!--[!--><!--]--><!--[--><line x1="396" y1="0" x2="396" y2="528" stroke="gray" stroke-width="1" opacity="0.6"></line><!--]--><!--[!--><!--]--><!--[--><line x1="408" y1="0" x2="408" y2="528" stroke="gray" stroke-width="1" opacity="0.6"></line><!--]--><!--[!--><!--]--><!--[--><line x1="420" y1="0" x2="420" y2="528" stroke="gray" stroke-width="2" opacity="0.6"></line><!--]--><!--[--><text x="420" y="-3" text-anchor="middle" dominant-baseline="auto" font-family="Arial" font-size="14" fill="black" transform="">25</text><text x="420" y="540" text-anchor="middle" font-family="Arial" font-size="14" fill="black">25</text><!--]--><!--[--><line x1="432" y1="0" x2="432" y2="528" stroke="gray" stroke-width="1" opacity="0.6"></line><!--]--><!--[!--><!--]--><!--[--><line x1="444" y1="0" x2="444" y2="528" stroke="gray" stroke-width="1" opacity="0.6"></line><!--]--><!--[!--><!--]--><!--[--><line x1="456" y1="0" x2="456" y2="528" stroke="gray" stroke-width="1" opacity="0.6"></line><!--]--><!--[!--><!--]--><!--[--><line x1="468" y1="0" x2="468" y2="528" stroke="gray" stroke-width="1" opacity="0.6"></line><!--]--><!--[!--><!--]--><!--[--><line x1="480" y1="0" x2="480" y2="528" stroke="gray" stroke-width="2" opacity="0.6"></line><!--]--><!--[--><text x="480" y="-3" text-anchor="middle" dominant-baseline="auto" font-family="Arial" font-size="14" fill="black" transform="">20</text><text x="480" y="540" text-anchor="middle" font-family="Arial" font-size="14" fill="black">20</text><!--]--><!--[--><line x1="492" y1="0" x2="492" y2="528" stroke="gray" stroke-width="1" opacity="0.6"></line><!--]--><!--[!--><!--]--><!--[--><line x1="504" y1="0" x2="504" y2="528" stroke="gray" stroke-width="1" opacity="0.6"></line><!--]--><!--[!--><!--]--><!--[--><line x1="516" y1="0" x2="516" y2="528" stroke="gray" stroke-width="1" opacity="0.6"></line><!--]--><!--[!--><!--]--><!--[--><line x1="528" y1="0" x2="528" y2="528" stroke="gray" stroke-width="1" opacity="0.6"></line><!--]--><!--[!--><!--]--><!--[--><line x1="540" y1="0" x2="540" y2="528" stroke="gray" stroke-width="2" opacity="0.6"></line><!--]--><!--[--><text x="540" y="-3" text-anchor="middle" dominant-baseline="auto" font-family="Arial" font-size="14" fill="black" transform="">15</text><text x="540" y="540" text-anchor="middle" font-family="Arial" font-size="14" fill="black">15</text><!--]--><!--[--><line x1="552" y1="0" x2="552" y2="528" stroke="gray" stroke-width="1" opacity="0.6"></line><!--]--><!--[!--><!--]--><!--[--><line x1="564" y1="0" x2="564" y2="528" stroke="gray" stroke-width="1" opacity="0.6"></line><!--]--><!--[!--><!--]--><!--[--><line x1="576" y1="0" x2="576" y2="528" stroke="gray" stroke-width="1" opacity="0.6"></line><!--]--><!--[!--><!--]--><!--[--><line x1="588" y1="0" x2="588" y2="528" stroke="gray" stroke-width="1" opacity="0.6"></line><!--]--><!--[!--><!--]--><!--[--><line x1="600" y1="0" x2="600" y2="528" stroke="gray" stroke-width="2" opacity="0.6"></line><!--]--><!--[--><text x="600" y="-3" text-anchor="middle" dominant-baseline="auto" font-family="Arial" font-size="14" fill="black" transform="">10</text><text x="600" y="540" text-anchor="middle" font-family="Arial" font-size="14" fill="black">10</text><!--]--><!--[--><line x1="612" y1="0" x2="612" y2="528" stroke="gray" stroke-width="1" opacity="0.6"></line><!--]--><!--[!--><!--]--><!--[--><line x1="624" y1="0" x2="624" y2="528" stroke="gray" stroke-width="1" opacity="0.6"></line><!--]--><!--[!--><!--]--><!--[--><line x1="636" y1="0" x2="636" y2="528" stroke="gray" stroke-width="1" opacity="0.6"></line><!--]--><!--[!--><!--]--><!--[--><line x1="648" y1="0" x2="648" y2="528" stroke="gray" stroke-width="1" opacity="0.6"></line><!--]--><!--[!--><!--]--><!--[--><line x1="660" y1="0" x2="660" y2="528" stroke="gray" stroke-width="2" opacity="0.6"></line><!--]--><!--[--><text x="660" y="-3" text-anchor="middle" dominant-baseline="auto" font-family="Arial" font-size="14" fill="black" transform="">5</text><text x="660" y="540" text-anchor="middle" font-family="Arial" font-size="14" fill="black">5</text><!--]--><!--[--><line x1="672" y1="0" x2="672" y2="528" stroke="gray" stroke-width="1" opacity="0.6"></line><!--]--><!--[!--><!--]--><!--[--><line x1="684" y1="0" x2="684" y2="528" stroke="gray" stroke-width="1" opacity="0.6"></line><!--]--><!--[!--><!--]--><!--[--><line x1="696" y1="0" x2="696" y2="528" stroke="gray" stroke-width="1" opacity="0.6"></line><!--]--><!--[!--><!--]--><!--[--><line x1="708" y1="0" x2="708" y2="528" stroke="gray" stroke-width="1" opacity="0.6"></line><!--]--><!--[!--><!--]--><!--[--><line x1="720" y1="0" x2="720" y2="528" stroke="gray" stroke-width="2" opacity="0.6"></line><!--]--><!--[!--><!--]--><!--]--><!--[--><!--[--><line x1="0" y1="0" x2="720" y2="0" stroke="gray" stroke-width="2" opacity="0.6"></line><!--]--><!--[!--><!--]--><!--[--><line x1="0" y1="12" x2="720" y2="12" stroke="gray" stroke-width="1" opacity="0.6"></line><!--]--><!--[!--><!--]--><!--[--><line x1="0" y1="24" x2="720" y2="24" stroke="gray" stroke-width="1" opacity="0.6"></line><!--]--><!--[!--><!--]--><!--[--><line x1="0" y1="36" x2="720" y2="36" stroke="gray" stroke-width="1" opacity="0.6"></line><!--]--><!--[!--><!--]--><!--[--><line x1="0" y1="48" x2="720" y2="48" stroke="gray" stroke-width="1" opacity="0.6"></line><!--]--><!--[!--><!--]--><!--[--><line x1="0" y1="60" x2="720" y2="60" stroke="gray" stroke-width="2" opacity="0.6"></line><!--]--><!--[--><text x="-2" y="60" dominant-baseline="middle" text-anchor="end" font-family="Arial" font-size="14" fill="black" transform="">5</text><text x="723" y="60" dominant-baseline="middle" text-anchor="start" font-family="Arial" font-size="14" fill="black" transform="">5</text><!--]--><!--[--><line x1="0" y1="72" x2="720" y2="72" stroke="gray" stroke-width="1" opacity="0.6"></line><!--]--><!--[!--><!--]--><!--[--><line x1="0" y1="84" x2="720" y2="84" stroke="gray" stroke-width="1" opacity="0.6"></line><!--]--><!--[!--><!--]--><!--[--><line x1="0" y1="96" x2="720" y2="96" stroke="gray" stroke-width="1" opacity="0.6"></line><!--]--><!--[!--><!--]--><!--[--><line x1="0" y1="108" x2="720" y2="108" stroke="gray" stroke-width="1" opacity="0.6"></line><!--]--><!--[!--><!--]--><!--[--><line x1="0" y1="120" x2="720" y2="120" stroke="gray" stroke-width="2" opacity="0.6"></line><!--]--><!--[--><text x="-2" y="120" dominant-baseline="middle" text-anchor="end" font-family="Arial" font-size="14" fill="black" transform="">10</text><text x="723" y="120" dominant-baseline="middle" text-anchor="start" font-family="Arial" font-size="14" fill="black" transform="">10</text><!--]--><!--[--><line x1="0" y1="132" x2="720" y2="132" stroke="gray" stroke-width="1" opacity="0.6"></line><!--]--><!--[!--><!--]--><!--[--><line x1="0" y1="144" x2="720" y2="144" stroke="gray" stroke-width="1" opacity="0.6"></line><!--]--><!--[!--><!--]--><!--[--><line x1="0" y1="156" x2="720" y2="156" stroke="gray" stroke-width="1" opacity="0.6"></line><!--]--><!--[!--><!--]--><!--[--><line x1="0" y1="168" x2="720" y2="168" stroke="gray" stroke-width="1" opacity="0.6"></line><!--]--><!--[!--><!--]--><!--[--><line x1="0" y1="180" x2="720" y2="180" stroke="gray" stroke-width="2" opacity="0.6"></line><!--]--><!--[--><text x="-2" y="180" dominant-baseline="middle" text-anchor="end" font-family="Arial" font-size="14" fill="black" transform="">15</text><text x="723" y="180" dominant-baseline="middle" text-anchor="start" font-family="Arial" font-size="14" fill="black" transform="">15</text><!--]--><!--[--><line x1="0" y1="192" x2="720" y2="192" stroke="gray" stroke-width="1" opacity="0.6"></line><!--]--><!--[!--><!--]--><!--[--><line x1="0" y1="204" x2="720" y2="204" stroke="gray" stroke-width="1" opacity="0.6"></line><!--]--><!--[!--><!--]--><!--[--><line x1="0" y1="216" x2="720" y2="216" stroke="gray" stroke-width="1" opacity="0.6"></line><!--]--><!--[!--><!--]--><!--[--><line x1="0" y1="228" x2="720" y2="228" stroke="gray" stroke-width="1" opacity="0.6"></line><!--]--><!--[!--><!--]--><!--[--><line x1="0" y1="240" x2="720" y2="240" stroke="gray" stroke-width="2" opacity="0.6"></line><!--]--><!--[--><text x="-2" y="240" dominant-baseline="middle" text-anchor="end" font-family="Arial" font-size="14" fill="black" transform="">20</text><text x="723" y="240" dominant-baseline="middle" text-anchor="start" font-family="Arial" font-size="14" fill="black" transform="">20</text><!--]--><!--[--><line x1="0" y1="252" x2="720" y2="252" stroke="gray" stroke-width="1" opacity="0.6"></line><!--]--><!--[!--><!--]--><!--[!--><!--]--><!--[--><text x="-2" y="264" dominant-baseline="middle" text-anchor="end" font-family="Arial" font-size="14" fill="black" transform="">22</text><text x="723" y="264" dominant-baseline="middle" text-anchor="start" font-family="Arial" font-size="14" fill="black" transform="">22</text><!--]--><!--[--><line x1="0" y1="276" x2="720" y2="276" stroke="gray" stroke-width="1" opacity="0.6"></line><!--]--><!--[!--><!--]--><!--[--><line x1="0" y1="288" x2="720" y2="288" stroke="gray" stroke-width="2" opacity="0.6"></line><!--]--><!--[--><text x="-2" y="288" dominant-baseline="middle" text-anchor="end" font-family="Arial" font-size="14" fill="black" transform="">20</text><text x="723" y="288" dominant-baseline="middle" text-anchor="start" font-family="Arial" font-size="14" fill="black" transform="">20</text><!--]--><!--[--><line x1="0" y1="300" x2="720" y2="300" stroke="gray" stroke-width="1" opacity="0.6"></line><!--]--><!--[!--><!--]--><!--[--><line x1="0" y1="312" x2="720" y2="312" stroke="gray" stroke-width="1" opacity="0.6"></line><!--]--><!--[!--><!--]--><!--[--><line x1="0" y1="324" x2="720" y2="324" stroke="gray" stroke-width="1" opacity="0.6"></line><!--]--><!--[!--><!--]--><!--[--><line x1="0" y1="336" x2="720" y2="336" stroke="gray" stroke-width="1" opacity="0.6"></line><!--]--><!--[!--><!--]--><!--[--><line x1="0" y1="348" x2="720" y2="348" stroke="gray" stroke-width="2" opacity="0.6"></line><!--]--><!--[--><text x="-2" y="348" dominant-baseline="middle" text-anchor="end" font-family="Arial" font-size="14" fill="black" transform="">15</text><text x="723" y="348" dominant-baseline="middle" text-anchor="start" font-family="Arial" font-size="14" fill="black" transform="">15</text><!--]--><!--[--><line x1="0" y1="360" x2="720" y2="360" stroke="gray" stroke-width="1" opacity="0.6"></line><!--]--><!--[!--><!--]--><!--[--><line x1="0" y1="372" x2="720" y2="372" stroke="gray" stroke-width="1" opacity="0.6"></line><!--]--><!--[!--><!--]--><!--[--><line x1="0" y1="384" x2="720" y2="384" stroke="gray" stroke-width="1" opacity="0.6"></line><!--]--><!--[!--><!--]--><!--[--><line x1="0" y1="396" x2="720" y2="396" stroke="gray" stroke-width="1" opacity="0.6"></line><!--]--><!--[!--><!--]--><!--[--><line x1="0" y1="408" x2="720" y2="408" stroke="gray" stroke-width="2" opacity="0.6"></line><!--]--><!--[--><text x="-2" y="408" dominant-baseline="middle" text-anchor="end" font-family="Arial" font-size="14" fill="black" transform="">10</text><text x="723" y="408" dominant-baseline="middle" text-anchor="start" font-family="Arial" font-size="14" fill="black" transform="">10</text><!--]--><!--[--><line x1="0" y1="420" x2="720" y2="420" stroke="gray" stroke-width="1" opacity="0.6"></line><!--]--><!--[!--><!--]--><!--[--><line x1="0" y1="432" x2="720" y2="432" stroke="gray" stroke-width="1" opacity="0.6"></line><!--]--><!--[!--><!--]--><!--[--><line x1="0" y1="444" x2="720" y2="444" stroke="gray" stroke-width="1" opacity="0.6"></line><!--]--><!--[!--><!--]--><!--[--><line x1="0" y1="456" x2="720" y2="456" stroke="gray" stroke-width="1" opacity="0.6"></line><!--]--><!--[!--><!--]--><!--[--><line x1="0" y1="468" x2="720" y2="468" stroke="gray" stroke-width="2" opacity="0.6"></line><!--]--><!--[--><text x="-2" y="468" dominant-baseline="middle" text-anchor="end" font-family="Arial" font-size="14" fill="black" transform="">5</text><text x="723" y="468" dominant-baseline="middle" text-anchor="start" font-family="Arial" font-size="14" fill="black" transform="">5</text><!--]--><!--[--><line x1="0" y1="480" x2="720" y2="480" stroke="gray" stroke-width="1" opacity="0.6"></line><!--]--><!--[!--><!--]--><!--[--><line x1="0" y1="492" x2="720" y2="492" stroke="gray" stroke-width="1" opacity="0.6"></line><!--]--><!--[!--><!--]--><!--[--><line x1="0" y1="504" x2="720" y2="504" stroke="gray" stroke-width="1" opacity="0.6"></line><!--]--><!--[!--><!--]--><!--[--><line x1="0" y1="516" x2="720" y2="516" stroke="gray" stroke-width="1" opacity="0.6"></line><!--]--><!--[!--><!--]--><!--[--><line x1="0" y1="528" x2="720" y2="528" stroke="gray" stroke-width="2" opacity="0.6"></line><!--]--><!--[!--><!--]--><!--]--><line x1="360" y1="0" x2="360" y2="528" stroke="black" stroke-dasharray="5,5"></line><line x1="0" y1="264" x2="720" y2="264" stroke="black" stroke-dasharray="5,5"></line><!----><!--[--><path d="M 0,0 L 18,0 L 18,44 L 0,44" transform="scale(12)" vector-effect="non-scaling-stroke" stroke="green" fill="green" opacity="0.25"></path><!--]--><!--[--><path d="M 42,0 L 60,0 L 60,44 L 42,44" transform="scale(12)" vector-effect="non-scaling-stroke" stroke="red" fill="red" opacity="0.25"></path><!--]--><!----><!--[--><g opacity="0.9" transform-origin="144 60" transform=" rotate(90)" role="button" tabindex="0" style="outline: none;"><!--[--><path d="M 144 60 L 288 60 L 288 132 L 144 132 L 144 60" stroke="black" vector-effect="non-scaling-stroke" fill="#5C6061" stroke-width="1"></path><!--]--><path d="M 145.2 61.199999999999996 L 241.20000000000002 61.199999999999996 L 241.20000000000002 67.19999999999999 L 151.2 67.19999999999999 L 151.2 109.19999999999999 L 145.2 109.19999999999999 L 145.2 61.199999999999996" stroke="black" vector-effect="non-scaling-stroke" fill="#A4A6A4" stroke-width="1"></path></g><g opacity="0.9" transform-origin="264 336" transform=" rotate(90)" role="button" tabindex="0" style="outline: none;"><!--[--><path d="M 264 336 L 408 336 L 408 408 L 264 408 L 264 336" stroke="black" vector-effect="non-scaling-stroke" fill="#5C6061" stroke-width="1"></path><!--]--><path d="M 288 337.20000000000005 L 385.20000000000005 337.20000000000005 L 385.20000000000005 385.20000000000005 L 379.20000000000005 385.20000000000005 L 379.20000000000005 343.20000000000005 L 294 343.20000000000005 L 294 385.20000000000005 L 288 385.20000000000005 L 288 337.20000000000005" stroke="black" vector-effect="non-scaling-stroke" fill="#A4A6A4" stroke-width="1"></path></g><g opacity="0.9" transform-origin="192 264" transform="scale(-1, 1) rotate(0)" role="button" tabindex="0" style="outline: none;"><!--[--><path d="M 192 264 L 288 264 L 288 336 L 192 336 L 192 264" stroke="black" vector-effect="non-scaling-stroke" fill="#5C6061" stroke-width="1"></path><!--]--><path d="M 193.20000000000002 265.20000000000005 L 286.79999999999995 265.20000000000005 L 286.79999999999995 271.20000000000005 L 199.20000000000002 270 L 199.20000000000002 312 L 193.20000000000002 312 L 193.20000000000002 265.20000000000005" stroke="black" vector-effect="non-scaling-stroke" fill="#A4A6A4" stroke-width="1"></path></g><g opacity="0.9" transform-origin="48 264" transform=" rotate(0)" role="button" tabindex="0" style="outline: none;"><!--[!--><!--]--><path d="M 48 264 L 96 264 L 96 336 L 48 336 L 48 264" stroke="black" vector-effect="non-scaling-stroke" fill="#065475" stroke-width="1"></path></g><g opacity="0.9" transform-origin="336 0" transform=" rotate(0)" role="button" tabindex="0" style="outline: none;"><!--[!--><!--]--><path d="M 336 0 L 384 0 L 384 72 L 336 72 L 336 0" stroke="black" vector-effect="non-scaling-stroke" fill="#065475" stroke-width="1"></path></g><g opacity="0.9" transform-origin="360 204" transform="scale(-1, 1) rotate(-45)" role="button" tabindex="0" style="outline: none;"><!--[--><path d="M 360 204 L 438 204 L 438 264 L 360 264 L 360 204" stroke="black" vector-effect="non-scaling-stroke" fill="#5C6061" stroke-width="1"></path><!--]--><path d="M 361.20000000000005 205.20000000000002 L 436.79999999999995 205.20000000000002 L 436.79999999999995 211.20000000000002 L 367.20000000000005 211.20000000000002 L 367.20000000000005 262.79999999999995 L 361.20000000000005 262.79999999999995 L 361.20000000000005 205.20000000000002" stroke="black" vector-effect="non-scaling-stroke" fill="#A4A6A4" stroke-width="1"></path></g><g opacity="0.9" transform-origin="304.79999999999995 148.8" transform="scale(-1, 1) rotate(-45)" role="button" tabindex="0" style="outline: none;"><!--[!--><!--]--><path d="M 304.79999999999995 148.8 L 346.79999999999995 148.8 L 346.79999999999995 208.79999999999998 L 304.79999999999995 208.79999999999998 L 304.79999999999995 148.8" stroke="black" vector-effect="non-scaling-stroke" fill="#065475" stroke-width="1"></path></g><g opacity="0.9" transform-origin="317.76 247.20000000000002" transform="scale(-1, 1) rotate(-45)" role="button" tabindex="0" style="outline: none;"><!--[!--><!--]--><path d="M 317.76 247.20000000000002 L 365.76 247.20000000000002 L 365.76 319.20000000000005 L 317.76 319.20000000000005 L 317.76 247.20000000000002" stroke="black" vector-effect="non-scaling-stroke" fill="#065475" stroke-width="1"></path></g><g opacity="0.9" transform-origin="576 468" transform=" rotate(-90)" role="button" tabindex="0" style="outline: none;"><!--[--><path d="M 576 468 L 720 468 L 720 540 L 576 540 L 576 468" stroke="black" vector-effect="non-scaling-stroke" fill="#5C6061" stroke-width="1"></path><!--]--><path d="M 577.2 469.20000000000005 L 673.2 469.20000000000005 L 673.2 475.20000000000005 L 583.2 475.20000000000005 L 583.2 517.2 L 577.2 517.2 L 577.2 469.20000000000005" stroke="black" vector-effect="non-scaling-stroke" fill="#A4A6A4" stroke-width="1"></path></g><g opacity="0.9" transform-origin="456 192" transform=" rotate(-90)" role="button" tabindex="0" style="outline: none;"><!--[--><path d="M 456 192 L 600 192 L 600 264 L 456 264 L 456 192" stroke="black" vector-effect="non-scaling-stroke" fill="#5C6061" stroke-width="1"></path><!--]--><path d="M 480 193.20000000000002 L 577.2 193.20000000000002 L 577.2 241.20000000000002 L 571.2 241.20000000000002 L 571.2 199.20000000000002 L 486 199.20000000000002 L 486 241.20000000000002 L 480 241.20000000000002 L 480 193.20000000000002" stroke="black" vector-effect="non-scaling-stroke" fill="#A4A6A4" stroke-width="1"></path></g><g opacity="0.9" transform-origin="528 264" transform="scale(-1, 1) rotate(-180)" role="button" tabindex="0" style="outline: none;"><!--[--><path d="M 528 264 L 624 264 L 624 336 L 528 336 L 528 264" stroke="black" vector-effect="non-scaling-stroke" fill="#5C6061" stroke-width="1"></path><!--]--><path d="M 529.2 265.20000000000005 L 622.8 265.20000000000005 L 622.8 271.20000000000005 L 535.2 270 L 535.2 312 L 529.2 312 L 529.2 265.20000000000005" stroke="black" vector-effect="non-scaling-stroke" fill="#A4A6A4" stroke-width="1"></path></g><g opacity="0.9" transform-origin="672 264" transform=" rotate(-180)" role="button" tabindex="0" style="outline: none;"><!--[!--><!--]--><path d="M 672 264 L 720 264 L 720 336 L 672 336 L 672 264" stroke="black" vector-effect="non-scaling-stroke" fill="#065475" stroke-width="1"></path></g><g opacity="0.9" transform-origin="384 528" transform=" rotate(-180)" role="button" tabindex="0" style="outline: none;"><!--[!--><!--]--><path d="M 384 528 L 432 528 L 432 600 L 384 600 L 384 528" stroke="black" vector-effect="non-scaling-stroke" fill="#065475" stroke-width="1"></path></g><g opacity="0.9" transform-origin="360 324" transform="scale(-1, 1) rotate(-225)" role="button" tabindex="0" style="outline: none;"><!--[--><path d="M 360 324 L 438 324 L 438 384 L 360 384 L 360 324" stroke="black" vector-effect="non-scaling-stroke" fill="#5C6061" stroke-width="1"></path><!--]--><path d="M 361.20000000000005 325.20000000000005 L 436.79999999999995 325.20000000000005 L 436.79999999999995 331.20000000000005 L 367.20000000000005 331.20000000000005 L 367.20000000000005 382.79999999999995 L 361.20000000000005 382.79999999999995 L 361.20000000000005 325.20000000000005" stroke="black" vector-effect="non-scaling-stroke" fill="#A4A6A4" stroke-width="1"></path></g><g opacity="0.9" transform-origin="415.20000000000005 379.20000000000005" transform="scale(-1, 1) rotate(-225)" role="button" tabindex="0" style="outline: none;"><!--[!--><!--]--><path d="M 415.20000000000005 379.20000000000005 L 457.20000000000005 379.20000000000005 L 457.20000000000005 439.20000000000005 L 415.20000000000005 439.20000000000005 L 415.20000000000005 379.20000000000005" stroke="black" vector-effect="non-scaling-stroke" fill="#065475" stroke-width="1"></path></g><g opacity="0.9" transform-origin="402.23999999999995 280.79999999999995" transform="scale(-1, 1) rotate(-225)" role="button" tabindex="0" style="outline: none;"><!--[!--><!--]--><path d="M 402.23999999999995 280.79999999999995 L 450.23999999999995 280.79999999999995 L 450.23999999999995 352.79999999999995 L 402.23999999999995 352.79999999999995 L 402.23999999999995 280.79999999999995" stroke="black" vector-effect="non-scaling-stroke" fill="#065475" stroke-width="1"></path></g><!--]--><!--[--><g><circle cx="360" cy="264" r="9" fill="black"></circle><circle cx="360" cy="264" r="45" fill="green" opacity="0.25"></circle><circle cx="360" cy="264" r="45" fill="none" stroke="black"></circle></g><g><circle cx="360" cy="456" r="9" fill="black"></circle><circle cx="360" cy="456" r="45" fill="green" opacity="0.25"></circle><circle cx="360" cy="456" r="45" fill="none" stroke="black"></circle></g><g><circle cx="360" cy="72" r="9" fill="black"></circle><circle cx="360" cy="72" r="45" fill="green" opacity="0.25"></circle><circle cx="360" cy="72" r="45" fill="none" stroke="black"></circle></g><g><circle cx="600" cy="264" r="9" fill="black"></circle><circle cx="600" cy="264" r="45" fill="green" opacity="0.25"></circle><circle cx="600" cy="264" r="45" fill="none" stroke="black"></circle></g><g><circle cx="120" cy="264" r="9" fill="black"></circle><circle cx="120" cy="264" r="45" fill="green" opacity="0.25"></circle><circle cx="120" cy="264" r="45" fill="none" stroke="black"></circle></g><!--]--><!--[--><defs><filter x="-0.05" y="-0.1" width="1.1" height="1.2" id="solid"><feFlood flood-color="black" result="bg"></feFlood><feMerge><feMergeNode in="bg"></feMergeNode><feMergeNode in="SourceGraphic"></feMergeNode></feMerge></filter></defs><!--[--><circle r="3" cx="144" cy="60" fill="red"></circle><line stroke="red" stroke-width="2" x1="144" y1="36" x2="144" y2="60"></line><circle r="3" cx="264" cy="480" fill="red"></circle><line stroke="red" stroke-width="2" x1="268.24264068711926" y1="508.24264068711926" x2="264" y2="480"></line><circle r="3" cx="96" cy="264" fill="red"></circle><line stroke="red" stroke-width="2" x1="72" y1="246" x2="96" y2="264"></line><circle r="3" cx="48" cy="264" fill="red"></circle><line stroke="red" stroke-width="2" x1="-1.9807621135331601" y1="279" x2="48" y2="264"></line><circle r="3" cx="336" cy="0" fill="red"></circle><line stroke="red" stroke-width="2" x1="340.65874281184534" y1="-17.38666487320323" x2="336" y2="0"></line><circle r="3" cx="275.10151519016495" cy="119.10151519016502" fill="red"></circle><line stroke="red" stroke-width="2" x1="275.10151519016495" y1="95.10151519016502" x2="275.10151519016495" y2="119.10151519016502"></line><circle r="3" cx="304.79999999999995" cy="148.8" fill="red"></circle><line stroke="red" stroke-width="2" x1="364.79999999999995" y1="124.80000000000001" x2="304.79999999999995" y2="148.8"></line><circle r="3" cx="576" cy="468" fill="red"></circle><line stroke="red" stroke-width="2" x1="577.5529142706151" y1="497.7955549577344" x2="576" y2="468"></line><circle r="3" cx="456" cy="48" fill="red"></circle><line stroke="red" stroke-width="2" x1="456" y1="24" x2="456" y2="48"></line><circle r="3" cx="624" cy="264" fill="red"></circle><line stroke="red" stroke-width="2" x1="663" y1="289.98076211353316" x2="624" y2="264"></line><circle r="3" cx="672" cy="264" fill="red"></circle><line stroke="red" stroke-width="2" x1="721.9807621135332" y1="249" x2="672" y2="264"></line><circle r="3" cx="384" cy="528" fill="red"></circle><line stroke="red" stroke-width="2" x1="391.7645713530756" y1="556.977774788672" x2="384" y2="528"></line><circle r="3" cx="444.89848480983505" cy="408.89848480983505" fill="red"></circle><line stroke="red" stroke-width="2" x1="449.1411254969543" y1="437.1411254969543" x2="444.89848480983505" y2="408.89848480983505"></line><circle r="3" cx="415.20000000000005" cy="379.20000000000005" fill="red"></circle><line stroke="red" stroke-width="2" x1="355.20000000000005" y1="403.20000000000005" x2="415.20000000000005" y2="379.20000000000005"></line><!--]--><!--[--><text filter="url(#solid)" x="144" y="36" text-anchor="middle" font-family="math" font-size="10.200000000000001" fill="white">12 ←, 5 ↑</text><text filter="url(#solid)" x="268.24264068711926" y="508.24264068711926" text-anchor="middle" font-family="math" font-size="10.200000000000001" fill="white">22 ←, 4 ↓</text><text filter="url(#solid)" x="72" y="246" text-anchor="middle" font-family="math" font-size="10.200000000000001" fill="white">8 ←, 22 ↓</text><text filter="url(#solid)" x="-1.9807621135331601" y="279" text-anchor="middle" font-family="math" font-size="10.200000000000001" fill="white">4 ←, 22 ↓</text><text filter="url(#solid)" x="340.65874281184534" y="-17.38666487320323" text-anchor="middle" font-family="math" font-size="10.200000000000001" fill="white">28 ←, 0 ↑</text><text filter="url(#solid)" x="275.10151519016495" y="95.10151519016502" text-anchor="middle" font-family="math" font-size="10.200000000000001" fill="white">23 ←, 10 ↑</text><text filter="url(#solid)" x="364.79999999999995" y="124.80000000000001" text-anchor="middle" font-family="math" font-size="10.200000000000001" fill="white">25.5 ←, 12.5 ↑</text><text filter="url(#solid)" x="577.5529142706151" y="497.7955549577344" text-anchor="middle" font-family="math" font-size="10.200000000000001" fill="white">12 →, 5 ↓</text><text filter="url(#solid)" x="456" y="24" text-anchor="middle" font-family="math" font-size="10.200000000000001" fill="white">22 →, 4 ↑</text><text filter="url(#solid)" x="663" y="289.98076211353316" text-anchor="middle" font-family="math" font-size="10.200000000000001" fill="white">8 →, 22 ↓</text><text filter="url(#solid)" x="721.9807621135332" y="249" text-anchor="middle" font-family="math" font-size="10.200000000000001" fill="white">4 →, 22 ↓</text><text filter="url(#solid)" x="391.7645713530756" y="556.977774788672" text-anchor="middle" font-family="math" font-size="10.200000000000001" fill="white">28 →, 0 ↓</text><text filter="url(#solid)" x="449.1411254969543" y="437.1411254969543" text-anchor="middle" font-family="math" font-size="10.200000000000001" fill="white">23 →, 10 ↓</text><text filter="url(#solid)" x="355.20000000000005" y="403.20000000000005" text-anchor="middle" font-family="math" font-size="10.200000000000001" fill="white">25.5 →, 12.5 ↓</text><!--]--><!--]--><!--[--><!--]--></g></svg>